<svg width="64" height="64" viewBox="0 0 64 64" fill="none" xmlns="http://www.w3.org/2000/svg">
  <defs>
    <linearGradient id="shieldGradient" x1="0%" y1="0%" x2="100%" y2="100%">
      <stop offset="0%" style="stop-color:#2563eb;stop-opacity:1" />
      <stop offset="100%" style="stop-color:#1d4ed8;stop-opacity:1" />
    </linearGradient>
    <filter id="shadow" x="-20%" y="-20%" width="140%" height="140%">
      <feDropShadow dx="0" dy="4" stdDeviation="8" flood-color="#000000" flood-opacity="0.1"/>
    </filter>
  </defs>
  
  <!-- Shield Background -->
  <path d="M32 4L56 16V32C56 44.1503 45.1503 54 32 54C18.8497 54 8 44.1503 8 32V16L32 4Z" 
        fill="url(#shieldGradient)" 
        filter="url(#shadow)"/>
  
  <!-- Shield Border -->
  <path d="M32 4L56 16V32C56 44.1503 45.1503 54 32 54C18.8497 54 8 44.1503 8 32V16L32 4Z" 
        stroke="#ffffff" 
        stroke-width="2" 
        fill="none" 
        opacity="0.3"/>
  
  <!-- Lock Icon -->
  <rect x="24" y="28" width="16" height="12" rx="2" fill="#ffffff" opacity="0.9"/>
  <path d="M28 28V24C28 20.6863 30.6863 18 34 18C37.3137 18 40 20.6863 40 24V28" 
        stroke="#ffffff" 
        stroke-width="2" 
        fill="none" 
        opacity="0.9"/>
  
  <!-- Keyhole -->
  <circle cx="32" cy="34" r="2" fill="#2563eb"/>
  <rect x="31" y="36" width="2" height="4" fill="#2563eb"/>
</svg> 